<svg width="255" height="181" xmlns="http://www.w3.org/2000/svg">
 <!-- Created with SVG Editor - http://github.com/mzalive/SVG Editor/ -->
 <g>
  <title>background</title>
  <rect fill="none" id="canvas_background" height="183" width="257" y="-1" x="-1"/>
  <g display="none" overflow="visible" y="0" x="0" height="100%" width="100%" id="canvasGrid">
   <rect fill="url(#gridpattern)" stroke-width="0" y="0" x="0" height="100%" width="100%"/>
  </g>
 </g>
 <g>
  <title>Layer 1</title>
  <path d="m9.665104,78.307159c0.444443,0 1.292343,-0.220551 3.111084,-0.444443c0.882217,-0.108612 1.313461,-0.14241 3.999954,-0.444427c7.521149,-0.845535 15.555359,-0.444443 25.333023,-0.444443c3.555511,0 11.55542,0 17.777557,0c1.777756,0 4.888844,0 7.55547,0c1.777756,0 7.122208,-0.315063 11.55542,0c3.13475,0.222778 8.888779,0.444443 15.999802,0.444443c4.444397,0 13.333176,0 23.110832,0c4.888824,0 12.888702,0 19.999725,0c2.666626,0 7.55545,0 11.110992,0c2.222168,0 5.777679,0 10.666534,0c1.77774,0 7.55545,0 11.110962,0c1.333313,0 3.555511,0.444427 6.222137,0.444427c0.888885,0 3.555511,0 5.77771,0c0.888885,0 3.111084,0 6.222168,0c1.333313,0 3.999939,0 6.666565,0c0.444458,0 3.111084,0 5.333282,0c1.77774,0 4.888824,0 7.55545,0c0.888885,0 5.77771,0 9.333221,0c1.777771,0 4.444397,0 7.555481,0c0.888885,0 1.333313,0 2.222198,0c0.444427,0 0.574615,0.130173 0.888885,0.444443c0.31427,0.314255 0.888855,0 1.77774,0c1.777771,0 3.555511,0 4.888824,0c2.666656,0 4.444397,0 5.77771,0l0.888885,0l1.333313,-0.444443l0.444427,0" id="svg_2" stroke-width="1.5" stroke="#ffc15b" fill="none"/>
  <path d="m3.887408,117.862244c2.222183,0 5.694718,-0.887161 19.999757,-1.777756c8.871597,-0.552322 12.888733,-0.444443 23.99971,-0.444443c12.44429,0 24.888584,0 30.666294,0c12.444305,0 18.222,0 27.999664,0c5.333267,0 6.645844,-0.221786 10.222099,-0.444443c1.774323,-0.110474 3.111084,-0.88887 3.555511,-0.88887c1.333313,0 3.555511,0 4.444397,0c3.111031,0 7.123871,0.184937 8.444305,0c3.204315,-0.448776 7.111023,-0.888885 8.444336,-0.888885c2.222198,0 3.999939,0 5.333282,0c1.77774,0 4.444366,0 5.333252,0c2.222198,0 4.444397,0 4.888824,0c2.666656,0 4.888855,0 5.77771,0c1.777771,0 4.444397,0 5.333282,0c2.666626,0 4.888824,0 5.77771,0c1.77774,0 3.999939,0 4.888824,0c1.77774,0 3.555511,0 5.333282,0c3.555511,0 7.999878,0 9.333221,0c3.555511,0 6.666565,0 7.999878,0c3.555511,0 7.999908,0 9.777679,0c3.999939,0 8.444336,0 10.222076,0c5.333282,0 9.777679,0 11.110992,0c2.222198,0 3.555511,0 3.999939,0c0.888885,0 1.333344,0.444443 1.777771,0.444443c1.333313,0 1.77774,0 2.222198,0c0.444427,0 0.888885,0 2.222198,0c0.888855,0 1.333313,0 1.77774,0l0.444458,0l0.444427,0" id="svg_3" stroke-width="1.5" stroke="#ffc15b" fill="none"/>
  <path d="m9.220676,77.862717c-0.444443,0 0.030106,0.953384 -0.444443,2.666641c-0.691757,2.497467 -1.573533,4.023727 -1.777757,4.888824c-0.456665,1.934418 -0.684662,4.023727 -0.888885,4.88884c-0.45665,1.934418 -0.88887,3.555511 -0.88887,3.999939c0,1.333328 -0.888885,2.222198 -0.888885,2.666641c0,1.333313 0,2.666641 0,4.888824c0,0.888885 -0.868942,2.910706 -1.333313,4.444397c-0.386383,1.276108 -0.663757,3.057098 -0.88887,4.444397c-0.14238,0.877396 0,1.777756 0,2.222183c0,0.888885 -0.090225,1.447327 0.444427,1.777756c1.195541,0.738892 1.777756,0.888885 2.222198,0.888885l0,0.444443l-0.444443,0l-0.444427,0.444427" id="svg_4" stroke-width="1.5" stroke="#ffc15b" fill="none"/>
  <path d="m58.108967,76.529404c-0.444427,0 -1.333313,3.111069 -1.777756,4.888824c-0.88887,3.555511 -1.333313,4.444397 -1.333313,5.77771c0,0.888885 0,1.333328 0,1.777756c0,1.333328 0,3.111084 0,5.77771c0,2.222198 0,3.555511 0,3.999954c0,1.333313 0,2.666641 0,3.555511c0,0.444443 0,1.777756 0,2.222198c0,0.88887 -0.342331,2.234085 -0.444443,2.666626c-0.228333,0.967224 -1.092789,1.64151 -1.333313,2.222198c-0.170074,0.410614 0.071198,0.894623 0,1.333328c-0.225128,1.387283 -1.333313,3.555511 -1.333313,4.888824c0,0.444443 0,1.333313 0,2.666626l0,-0.444427l0.444427,-0.888885l0,-0.444443" id="svg_5" stroke-width="1.5" stroke="#ffc15b" fill="none"/>
  <path d="m242.10672,77.862717c0.444427,0 -0.574615,0.130157 -0.888885,0.444443c-0.31427,0.31427 -0.48175,0.87117 -0.888885,1.777756c-0.980469,2.183319 -1.10498,2.588303 -1.333313,3.555511c-0.102112,0.432556 -0.274353,1.367142 -0.444427,1.777756c-0.481049,1.161392 -1.321106,1.176651 -1.777771,3.111084c-0.204224,0.865097 -0.407806,1.060822 -0.888855,2.222183c-0.170074,0.410614 -0.444458,0.888885 -0.444458,1.333328c0,0.444427 0,0.88887 0,1.333313c0,0.88887 0,1.777756 0,2.222198c0,0.88887 0.444458,1.333313 0.888885,1.777756c0.444427,0.444427 1.10498,1.25499 1.333313,2.222198c0.102112,0.432541 0,0.88887 0,1.333313c0,0.444443 -0.170074,0.922699 0,1.333313c0.24054,0.580704 0.888885,0.444443 0.888885,0.888885c0,0.88887 0.648346,1.641495 0.888885,2.222183c0.340179,0.821213 -0.340149,1.400986 0,2.222198c0.240509,0.580688 0.104279,1.40097 0.444427,2.222198c0.481049,1.161392 0.922699,1.607681 1.333313,1.777756c0.580719,0.240524 0.574615,0.574615 0.888885,0.888885c0.31427,0.314255 0.922729,-0.170074 1.333313,0c0.580658,0.240524 0.444427,0.88887 0.888885,0.88887c0.444427,0 0.888885,0 1.77774,0c0.444458,0 0.888885,-0.444427 1.777771,-1.333313c0.444427,-0.444443 0.888885,-0.888885 0.888885,-1.333313c0,-0.444443 0.216095,-1.699448 0.444427,-2.666641c0.102112,-0.432556 -0.170074,-1.367142 0,-1.777756c0.240509,-0.580688 0.444427,-0.888885 0.444427,-1.333313c0,-0.444443 0.203918,-0.752625 0.444458,-1.333328c0.170074,-0.410599 0,-2.666626 0,-4.444382c0,-0.888885 0.444427,-1.777756 0.444427,-2.666641c0,-0.444443 0,-0.88887 0,-1.333313c0,-0.444443 -0.444427,-0.444443 -0.444427,-0.888885c0,-0.88887 -0.203918,-1.641495 -0.444458,-2.222183c-0.340179,-0.821213 -0.444427,-1.333328 -0.444427,-1.777756c0,-0.444443 -0.444427,-0.444443 -0.444427,-0.888885c0,-0.444443 -0.548706,-1.845428 -0.888885,-2.666641c-0.24054,-0.580688 -0.888885,-1.333313 -0.888885,-3.111069c0,-0.88887 -0.458435,-1.960907 0.444427,-3.555511c0.309692,-0.546967 0.444458,-0.88887 0.444458,-1.333313c0,-0.444443 -0.444458,-0.444443 -0.888885,-0.444443c-0.888885,0 -1.333313,0 -2.222198,0c-0.444427,0 -0.888885,0 -1.333313,0l-0.888885,0" id="svg_10" stroke-width="1.5" stroke="#ffc15b" fill="#ff9a5b"/>
  <path d="m244.328918,74.751648c0.444427,0 1.026764,0.124908 2.222198,-1.333313c1.01593,-1.239243 1.333313,-2.222198 1.333313,-3.111084c0,-0.444427 -0.136261,-1.092789 0.444427,-1.333313c0.410614,-0.17009 0.888855,-1.333328 2.222198,-3.999954c0.444458,-0.88887 0.988525,-1.73457 1.333313,-2.666622c0.635773,-1.718643 0.269287,-2.675293 0.444458,-4.444405c0.223297,-2.255169 0.444427,-3.111065 0.444427,-3.555508c0,-0.444443 0,-0.88887 0,-2.222198c0,-1.777756 0.888885,-3.111069 0.888885,-4.444382c0,-0.444443 0,-1.333328 0,-1.777756c0,-0.444443 0,-0.888885 0,-1.333328c0,-1.333313 0.18045,-2.001892 -0.888885,-3.999954c-0.59317,-1.108322 -0.888885,-1.777756 -0.888885,-2.66663c0,-1.333321 -0.444427,-2.666634 -0.444427,-3.555511c0,-0.888878 0,-1.777756 0,-2.222198c0,-1.333313 -0.444427,-1.777756 -0.444427,-2.222198c0,-0.444435 0.204224,-0.912659 0,-1.777756c-0.228333,-0.967216 -0.104309,-1.40097 -0.444458,-2.222191c-0.240509,-0.580681 -0.315643,-1.352396 -0.444427,-1.777758c-0.464355,-1.533699 -0.888885,-1.777756 -0.888885,-2.222198c0,-0.444435 -0.444427,-0.888878 -0.444427,-1.333313c0,-0.444443 -0.366425,-0.932381 -0.888885,-1.777763c-0.233643,-0.378059 0.170074,-0.922707 0,-1.333313c-0.24054,-0.580704 -1.333313,-1.333321 -2.222198,-2.222198c-0.888885,-0.888878 -2.222198,-1.777748 -3.111084,-2.666634c-0.444427,-0.444435 -0.752228,-1.415977 -1.333313,-2.222191c-0.367493,-0.509888 -0.888885,-1.333321 -0.888885,-2.666633c0,-1.333321 0,-1.777763 0,-2.666641c0,-0.444435 0,-1.333313 0,-1.777756c0,-0.444435 0.078339,-1.104988 -0.888855,-1.333313c-0.432556,-0.102119 -1.333313,-0.444443 -2.222198,-0.444443c-0.444458,0 -0.888885,0 -1.333313,0c-0.444458,0 -0.888885,0 -1.333344,0c-0.444427,0 -0.922699,0.274353 -1.333313,0.444443c-0.580688,0.240524 -0.187592,0.973656 -0.888855,2.666634c-0.99173,2.394241 -2.202301,3.355133 -2.666656,4.888832c-0.128784,0.425362 0,0.888878 0,1.333313c0,0.444443 -0.136627,0.971542 0.444458,1.777756c1.102539,1.529663 1.46347,1.463493 1.77774,1.777756c0.31427,0.314278 0.96582,0.378998 1.333313,0.888878c0.581085,0.806213 0.888885,1.333321 0.888885,1.777756c0,0.444443 0.308197,1.537231 0.888885,1.777756c0.410614,0.170067 0.274353,0.478279 0.444427,0.888885c0.24054,0.580696 0.718811,0.922707 0.888885,1.333313c0.240509,0.580681 0.444427,0.888878 0.444427,1.333321c0,0.444435 0,0.888878 0,1.333313c0,0.444443 0,0.888878 0,1.333323c0,0.444435 0,0.888878 0,1.333313c0,0.444443 0,0.888878 0,2.222198c0,1.777756 -0.138092,2.702301 -0.444427,3.999954c-0.228333,0.967209 -0.852264,1.505257 -1.333313,2.666634c-0.170074,0.410606 -0.444458,1.777756 -0.444458,2.222191c0,0.888878 -0.444427,1.333317 -0.444427,1.77776c0,0.444443 0.204224,0.912643 0,1.777756c-0.228333,0.967209 -0.888885,1.777756 -0.888885,2.222198c0,0.88887 0,1.333313 0,2.222198c0,0.444443 0,0.88887 0,1.333313c0,0.444443 0,0.888885 0,1.333313c0,0.444443 0.130188,1.019043 0.444458,1.333328c0.62854,0.628525 0.444427,1.333313 0.444427,1.777756c0,0.444427 0.203918,0.752625 0.444427,1.333313c0.170074,0.410614 0,0.888885 0,1.333313c0,0.444443 0,1.333328 0,1.777756c0,0.444443 0,1.333324 0,1.777752c0,0.888885 0.444458,1.777763 0.444458,2.222206c0,0.444443 0,0.888885 0.444427,1.777756c0.444458,0.888885 1.092804,1.197067 1.333313,1.777756c0.170074,0.410614 0.308197,1.0928 0.888885,1.333324c0.410614,0.17009 0.922699,1.607681 1.333313,1.777756c0.580688,0.240524 0.444458,0.88887 0.888885,1.333313c0.444427,0.444443 0.574615,0.574615 0.888885,0.88887c0.31427,0.314255 0.574615,0.574615 0.888885,0.888885c0.31427,0.314255 0.888855,0.88887 0.888855,1.333313c0,0.444443 -0.102112,0.900772 0,1.333313c0.228333,0.967224 0.888885,0.888885 1.333313,0.888885l0.444458,0.444443l0.444427,0.444427" id="svg_13" stroke-width="1.5" stroke="#a99fe6" fill="none"/>
  <path d="m175.885284,28.52998c0,2.222198 1.283875,4.046974 -2.666626,12.444294c-1.364288,2.899994 -2.169708,3.58786 -3.555511,5.77771c-1.713837,2.708176 -2.320221,3.036087 -3.999939,5.333267c-0.945862,1.293533 -1.333313,2.222214 -2.222198,3.111084c-0.444458,0.444443 -0.444458,0.88887 -0.888885,1.777752c-0.444427,0.88887 -0.888885,1.777756 -1.333313,2.666634c-0.888885,1.777756 -1.540344,3.443741 -2.666626,5.777706c-1.65033,3.419937 -2.283112,4.859222 -3.555542,7.555466c-1.868134,3.958542 -2.524017,5.17807 -3.555511,7.555466c-1.287811,2.968216 -1.040039,4.715683 -2.666626,7.999908c-1.263031,2.55014 -1.675598,4.77507 -3.999939,7.999893c-1.470032,2.039566 -2.256744,3.359085 -3.999969,5.77771c-1.470032,2.039566 -2.387238,2.109634 -3.555511,3.999954c-1.044922,1.69075 -1.504456,3.276398 -2.666626,4.888824c-1.102539,1.529678 -1.564087,2.025848 -2.666626,3.555511c-1.16217,1.612411 -1.569946,2.310608 -2.222198,3.555511c-1.031311,1.968384 -1.333313,2.222198 -2.666611,3.999954c-1.333328,1.777756 -2.306747,2.613983 -3.111069,3.999954c-0.99762,1.719086 -1.071808,2.401764 -2.666626,4.444397c-0.773621,0.990814 -1.410248,1.267868 -1.777771,1.777756c-0.581085,0.806198 -1.075012,1.51947 -1.77774,2.222198c-0.702728,0.702713 -1.092804,0.752625 -1.333313,1.333313c-0.170074,0.410614 -0.473206,1.510132 -1.777771,3.999954c-3.093987,5.905136 -4.412422,6.938156 -5.33326,7.999893c-0.651138,0.750778 -1.400986,0.548737 -2.222198,0.888885c-0.580688,0.240524 -1.019058,0.574615 -1.333313,0.88887c-0.31427,0.31427 -1.333328,0.888885 -2.222198,2.222198l-1.333313,1.777756" id="svg_15" stroke-width="1.5" stroke="#ff0000" fill="none"/>
  <path d="m149.663391,28.52998c-0.444427,0.444435 -1.333313,1.777748 -5.333282,7.111023c-1.333313,1.777756 -1.641113,1.86042 -2.222198,2.666634c-0.367493,0.509884 -0.308167,1.092785 -0.888855,1.333324c-0.410614,0.17009 -0.629272,0.338257 -1.333313,1.777756c-0.617493,1.262527 -4.543396,5.655029 -6.222168,7.111023c-2.374146,2.059067 -3.69339,4.319504 -4.888824,5.77771c-1.015923,1.239243 -2.08551,3.193737 -2.666595,3.99995c-1.102509,1.529686 -2.304871,2.529991 -3.111084,3.111076c-1.529663,1.102524 -1.699707,1.376816 -2.222198,2.222198c-0.233643,0.378063 -0.444427,0.888882 -0.444427,1.333309c0,0.444443 -0.342316,0.900772 -0.444427,1.333328c-0.228333,0.967209 -0.444458,1.777756 -0.888885,2.666626c-0.444458,0.888885 -0.495941,2.206131 -0.888885,3.555511c-0.512329,1.759384 -0.660553,3.921616 -0.888885,4.88884c-0.408447,1.730194 -0.342316,3.567398 -0.444427,3.999939c-0.456665,1.934418 -1.602844,3.350494 -2.222198,4.444397c-0.90284,1.59462 -1.835823,4.501602 -2.222191,5.77771c-0.928726,3.067368 -3.613144,4.837845 -3.999954,5.333267c-1.594833,2.042633 -2.609665,4.484192 -3.555511,5.77771c-1.679749,2.29718 -3.280289,4.232025 -4.444397,5.333267c-1.614319,1.52713 -2.422394,3.311295 -3.555511,4.444397c-1.133102,1.133087 -2.336182,1.687531 -2.666626,2.222183c-0.738907,1.195541 -1.483322,2.804413 -2.222198,3.999954c-0.991318,1.603973 -2.299133,3.045624 -2.666641,3.555511c-0.581085,0.806213 -1.463486,2.352371 -1.777756,2.666641c-0.942795,0.942795 -0.88887,2.666626 -1.333313,3.555511c-1.333313,2.666626 -2.321838,4.401215 -2.666626,5.333267c-0.635757,1.718643 -1.155914,3.224762 -1.777756,3.999954c-1.146622,1.429413 -0.487946,3.477478 -1.333328,3.999954c-0.378052,0.233643 -0.88887,0.88887 -1.333313,1.333313c-0.444443,0.444443 -0.888885,0.444443 -1.777756,0.444443l-0.444443,0.444443" id="svg_19" stroke-width="1.5" stroke="#ff0000" fill="none"/>
  <path d="m174.551971,29.418858c0.888885,0.444435 1.64151,1.092789 2.222198,1.333321c1.231812,0.510246 1.301361,0.271568 2.222198,1.333313c0.651154,0.750778 2.316284,2.095146 3.555511,3.111076c0.972137,0.796967 1.367157,2.052101 1.777771,2.222191c0.580688,0.240532 0.402802,0.934834 0.888855,1.333317c1.239227,1.015945 2.279846,2.171219 2.666656,2.666641c1.594849,2.042618 1.841858,3.081802 2.222168,3.999954c0.537842,1.298462 0.888885,2.222198 1.777771,3.999954c0.444427,0.88887 1.537231,2.974808 1.777771,3.555511c0.340149,0.821213 0.558411,2.131973 0.888855,2.666626c0.738892,1.195541 1.092804,2.085949 1.333313,2.666637c0.510223,1.231834 0.444458,1.777779 0.888885,2.222206c0.444458,0.444443 1.10498,0.810547 1.333313,1.777756c0.204224,0.865097 0,1.333313 0,2.222195c0,0.444427 0,1.777756 0,2.666626c0,1.333313 0,3.999954 0,4.888824c0,1.777756 0,3.999954 0,4.88884c0,1.777756 0,3.111069 0,3.999954c0,0.88887 0,1.777756 0,2.666626c0,0.444443 0.274384,0.922714 0.444458,1.333313c0.481049,1.161362 1.487183,1.202408 2.222198,2.222198c0.581085,0.806213 0.598297,1.202408 1.333313,2.222198c0.581085,0.806213 1.333313,2.666641 1.333313,3.555511c0,1.777756 0,3.555511 0,4.444397c0,1.333313 0,2.222198 0,3.111069c0,1.333313 0,1.777756 0,2.666641c0,0.88887 0.043793,2.668793 0,3.111069c-0.223328,2.255188 -0.888885,3.555511 -1.333313,4.888824c-0.444458,1.333328 -0.444458,1.777756 -0.444458,2.666641c0,0.444443 0.170074,0.922699 0,1.333313c-0.240509,0.580688 -0.888855,1.333298 -1.333313,1.777756c-0.444427,0.444443 -1.196655,1.415985 -1.77774,2.222198c-0.735016,1.019791 -0.752228,1.860428 -1.333313,2.666641c-1.102539,1.529694 -2.008575,2.470261 -3.111084,3.999939c-0.581085,0.806213 -1.504456,2.387543 -2.666626,3.999954c-0.367523,0.509903 0.498322,1.279404 -0.444458,2.222198c-0.31427,0.314255 -1.296692,1.060837 -1.77774,2.222198c-0.170074,0.410614 -0.786774,1.789642 -0.888885,2.222198c-0.228333,0.967194 -0.97348,1.280655 -1.777771,2.666626c-0.49881,0.859543 -1.552612,1.723785 -1.77774,3.111069c-0.071198,0.438705 -0.594421,1.026672 -1.333313,2.222198c-0.330444,0.534668 -0.888885,1.333328 -1.777771,1.777756c-0.888885,0.444443 -1.368988,1.50061 -3.111053,2.222198c-0.821228,0.340164 -2.304871,0.752228 -3.111084,1.333313c-0.509888,0.367508 -1.915558,0.594452 -3.111084,1.333328c-0.534637,0.330429 -3.170166,1.141983 -4.888824,1.777756c-1.864105,0.689575 -3.63028,0.704346 -7.111023,2.222183c-0.91095,0.397247 -4.063141,1.049316 -6.666595,1.777771c-2.30484,0.644897 -3.134033,1.269547 -4.444366,1.777756c-4.081024,1.582825 -5.308136,1.843399 -7.555481,2.666626c-1.319672,0.483414 -1.77774,0.444443 -3.111084,0.444443c-0.444427,0 -1.351685,0.067886 -3.111053,-0.444443c-5.397583,-1.571793 -8.390335,-3.774826 -9.777649,-3.999954c-0.87738,-0.14238 -1.812592,-0.351028 -3.111053,-0.88887c-0.918152,-0.38031 -1.254974,-0.660553 -2.222198,-0.888885c-0.432556,-0.102112 -0.922699,0.17009 -1.333313,0c-0.580688,-0.240524 -0.752625,-0.648346 -1.333313,-0.88887c-0.410614,-0.170074 -0.752625,-0.203918 -1.333313,-0.444443c-0.410614,-0.170074 -0.900787,0.102112 -1.333313,0c-1.934425,-0.456665 -3.555534,-0.888885 -4.444405,-0.888885c-0.444443,0 -1.197067,-0.203903 -1.777756,-0.444427c-0.821228,-0.340149 -1.333313,0 -1.777756,0c-0.444443,0 -0.888885,0 -1.333313,0c-0.444443,0 -1.333328,0 -1.777756,0c-0.444443,0 -0.888885,0 -1.333328,0c-0.444427,0 -0.88887,0 -1.333313,0c-0.444443,0 -0.888885,0 -1.333313,0l-0.444443,0l-0.444443,0l-0.444443,-0.444443" id="svg_21" stroke-width="1.5" stroke="#ff0000" fill="none"/>
  <path d="m75.442101,144.084152c-0.888885,-0.444443 -1.694504,-1.425232 -2.666641,-2.222198c-1.239243,-1.01593 -2.666626,-2.222198 -3.111069,-2.666641c-0.88887,-0.88887 -1.204514,-1.796829 -1.333313,-2.222198c-0.464371,-1.533691 -1.104996,-2.143845 -1.333328,-3.111069c-0.204224,-0.865097 -0.88887,-2.666641 -0.88887,-3.555511c0,-0.444443 -0.203918,-1.64151 -0.444443,-2.222198c-0.340149,-0.821213 -0.21611,-1.254974 -0.444443,-2.222198c-0.102112,-0.432541 0,-1.777756 0,-2.666626c0,-0.444443 0,-1.333313 0,-2.222198c0,-0.888885 0,-1.777756 0,-2.222198c0,-1.333313 -0.219315,-1.723785 -0.444427,-3.111069c-0.14238,-0.877411 0,-1.333313 0,-2.222198c0,-0.444443 -0.130173,-1.463486 -0.444443,-1.777756c-0.31427,-0.31427 0.408447,-0.936432 0,-2.666641c-0.228333,-0.967209 -0.444447,-1.777756 -0.444447,-2.666626c0,-0.444443 0,-1.777756 0,-2.666641c0,-0.444427 0,-1.333313 0,-2.222183c0,-0.888885 0,-2.222198 0,-3.555527c0,-0.88887 0,-1.777756 0,-3.555511c0,-0.88887 0,-1.333313 0,-2.666626c0,-0.888885 0,-2.666641 0,-3.999954c0,-0.444443 0,-1.777756 0,-2.222198c0,-0.444443 0,-0.88887 -0.444443,-1.333313c-0.444427,-0.444443 -1.105286,-0.938293 -0.444427,-5.333267c0.898865,-5.977829 2.260227,-7.095001 3.555515,-10.222107c0.915909,-2.211182 0.718781,-3.144897 0.88887,-3.555511c0.240524,-0.580673 0.819016,-0.493744 1.777756,-1.777752c2.076782,-2.781372 3.195648,-3.502853 3.999954,-4.888832c0.49881,-0.859558 1.549423,-1.699413 1.777756,-2.666637c0.102112,-0.432541 0.786774,-0.456314 0.888885,-0.88887c0.228317,-0.967209 0.444427,-1.333313 0.88887,-1.777756c0.444443,-0.444443 0.497025,-1.123611 0.888885,-1.333328c1.412827,-0.756119 1.333313,-1.777756 1.777756,-2.222183c0.444443,-0.444443 0.922699,-0.718811 1.333313,-0.888885c1.74205,-0.721588 1.811584,-1.607681 2.222198,-1.777756c0.580688,-0.240524 0.912643,-0.240219 1.777756,-0.444443c0.967194,-0.228317 1.3452,-0.786758 1.777756,-0.88887c0.967209,-0.228333 1.777756,-0.444443 2.222198,-0.888885c0.444427,-0.444427 1.367142,-0.718796 1.777756,-0.88887c0.580688,-0.24054 1.368179,-0.351044 2.666626,-0.888885c0.918152,-0.38031 1.25499,-1.10498 2.222198,-1.333313c0.865112,-0.204224 1.807083,-0.834503 2.666641,-1.333328c1.385971,-0.804306 1.646851,-1.04274 2.666626,-1.777752c0.806213,-0.581085 1.333328,-0.888878 2.222198,-1.333313c0.888885,-0.444443 0.888885,-0.888878 1.333313,-0.888878c0.444443,0 0.900772,-0.342331 1.333328,-0.444443c0.967209,-0.228325 1.333313,-0.888878 2.222183,-0.888878c0.444443,0 0.888885,0 2.222198,0c1.333313,0 1.837204,0.510551 3.999954,0c0.967201,-0.228325 1.505257,-0.852257 2.666634,-1.333313c1.231842,-0.510231 2.357513,0.23587 3.999939,-0.444443c1.161377,-0.481056 1.339081,-0.817688 1.777771,-0.888878c1.387299,-0.225128 1.64151,-0.648346 2.222198,-0.888878c0.410583,-0.170074 1.333313,-0.444435 1.77774,-0.444435c0.444443,0 0.88887,0 1.33329,0c0.888878,0 1.777763,0 2.222191,0c0.888885,0 1.723785,-0.219315 3.111084,-0.444443c1.754791,-0.284767 2.768127,0.510223 3.999939,0c0.580719,-0.240532 1.777771,-0.888878 2.222198,-0.888878c0.888885,0 1.357086,0.204224 2.222198,0c0.967224,-0.228333 1.777771,-0.444443 2.666626,-0.444443l0,-0.444435l0.888885,0" id="svg_22" stroke-width="1.5" stroke="#ff0000" fill="none"/>
  <path d="m46.109119,28.974415c0.444443,-0.444435 0.927734,-0.797302 3.111069,-1.777756c0.906586,-0.407112 1.267853,-0.52137 1.777756,-0.888878c0.806213,-0.581085 1.415985,-0.307793 2.222198,-0.888878c0.509888,-0.367508 0.922699,-0.274353 1.333313,-0.444435c0.580688,-0.240534 0.947968,-0.727053 2.666641,-2.666636c3.360687,-3.792648 5.585052,-4.059731 7.111027,-5.333275c1.706085,-1.423866 3.621887,-2.877411 3.999954,-3.111069c0.845383,-0.522469 1.197067,-1.981667 1.777756,-2.222198c0.821213,-0.340157 2.612656,-0.66375 3.999954,-0.888878c3.509598,-0.569527 6.198456,-0.6661 9.333221,-0.888878c1.773285,-0.126022 4.540115,-0.052856 7.111023,-0.888878c0.945068,-0.30732 3.111069,-0.888878 4.888824,-0.888878c1.333313,0 2.257874,-0.138099 3.555511,-0.444435c0.967224,-0.228333 1.333313,-0.444443 2.222198,-0.444443c0.888885,0 1.333313,-0.444443 2.222198,-0.444443c0.444443,0 1.333313,-0.444435 2.222198,-0.444435c0.88887,0 2.588303,-0.660553 3.555511,-0.888878c0.865097,-0.204216 2.168274,0.942795 3.111069,0c0.31427,-0.31427 1.777756,-0.444443 2.666649,-0.444443c0.444427,0 2.23938,0.213577 3.555511,0c1.387268,-0.225128 2.625641,-0.664978 4.444366,-0.888878c0.441132,-0.054306 1.777771,-0.444435 3.111084,-0.444435c0.444427,0 1.333298,0 1.777718,0c0.44445,0 0.888878,0 1.333305,0c0.444458,0 0.888885,0 1.777771,0c0.888885,0 1.621063,0.43222 3.555511,0.888878c0.432526,0.102104 2.666626,1.333313 3.111084,1.333313c0.444427,0 1.333313,0 1.77774,0c0.444458,0 0.888885,0 2.222198,0c0.444427,0 1.333313,0 2.666626,0c0.444458,0 1.777771,0 2.666656,0c0.444427,0 1.333313,0 2.222198,0c0.444427,0 2.150055,-0.516579 3.555511,0.888878c0.702728,0.702728 2.666626,0.888885 4.888824,0.888885c0.444427,0 1.723755,0.219307 3.111053,0.444435c0.438721,0.071198 1.279358,0.219315 2.666656,0.444443c0.43869,0.07119 1.333313,0 1.77774,0c0.444458,0 1.777771,0.444435 2.666626,0.444435c0.444458,0 1.784424,0.335838 2.666656,0.444443c1.818726,0.223892 4.415131,0.508568 5.333252,0.888878c1.298462,0.537842 2.2341,0.342316 2.666656,0.444435c0.967194,0.228333 1.789215,0.74649 2.666626,0.888878c1.387299,0.225128 2.666626,0.888878 3.555511,1.333321c0.888885,0.444435 1.845398,0.104279 2.666626,0.444435c1.161377,0.481056 1.789673,0.786766 2.222198,0.888878c0.967224,0.228333 2.131958,1.002884 2.666626,1.333321c1.195557,0.738899 2.666656,0.888878 3.111084,0.888878c0.888885,0 1.197083,0.203911 1.777771,0.444435c0.410614,0.170067 0.679138,0.497032 0.888855,0.888878c0.756134,1.412834 2.052124,1.367157 2.222198,1.777763c0.24054,0.580696 0.761841,0.538506 1.777771,1.777756c0.398468,0.486061 1.160278,0.959671 1.77774,2.222191c0.704041,1.439516 2.202301,2.021822 2.666656,3.555513c0.128784,0.425369 0.390045,0.918213 0.888855,1.777756c0.804321,1.385979 0.888885,1.777763 0.888885,2.222198c0,0.444443 -0.079285,0.896011 0,1.333321c0.677521,3.736351 1.573914,4.312241 2.222198,5.777702c0.741333,1.675823 0.299988,2.497753 1.77774,4.888836c0.660889,1.069321 1.206268,1.871841 2.222198,3.111069c0.398499,0.486084 1.25531,0.932388 1.777771,1.777756c0.233673,0.378067 0.130157,0.574631 0.444427,0.888885c0.31427,0.31427 -0.091583,2.261047 0.888885,4.444397c0.407104,0.90657 0.846649,3.976727 2.222198,5.777699c0.603241,0.78978 0.697571,1.836868 1.333313,3.555511c0.344788,0.932068 -0.013977,1.960903 0.888885,3.555523c0.309662,0.546936 0.444427,1.333313 0.444427,1.777756c0,0.444427 0,0.88887 0,1.777756c0,0.88887 0,3.555511 0,5.777695c0,1.333328 0.597839,4.078613 1.333313,6.222153c0.32254,0.940018 1.552643,3.945969 1.777771,5.333267c0.071198,0.438705 0.42453,1.577377 0.888885,3.111084c0.128784,0.425354 0.660522,1.699432 0.888855,2.666626c0.102112,0.432556 0.42453,1.132935 0.888885,2.666641c0.128784,0.425354 0.663757,2.612656 0.888885,3.999954c0.142365,0.877396 0.159637,2.68959 0.444427,4.444382c0.225128,1.387299 0.444458,2.666641 0.444458,3.111069c0,1.333328 0,2.666641 0,4.444397c0,0.444443 -0.19931,1.691376 -0.888885,3.555511c-0.635773,1.718643 -0.2117,3.286453 -1.333313,6.222153c-0.57193,1.496918 -1.686188,3.149918 -2.666656,5.333267c-0.407104,0.90657 -0.973419,2.613968 -1.77774,3.999954c-0.49881,0.859543 -0.932404,2.588608 -1.777771,3.111069c-0.378052,0.233643 -0.888855,0.88887 -1.333313,1.333313c-0.444427,0.444427 -0.444427,1.333328 -0.888855,1.777756c-0.444458,0.444443 -0.274384,0.922714 -0.444458,1.333328c-0.481049,1.161377 -1.333313,2.222183 -1.77774,2.666626c-1.333313,1.333328 -2.526123,3.133896 -2.666656,3.555511c-0.702728,2.108154 -1.9216,2.453384 -2.666626,3.111084c-1.201324,1.060501 -1.333313,1.77774 -2.222198,2.666626c-0.444427,0.444443 -1.830322,1.568039 -2.222198,1.777756c-1.412811,0.756134 -2.222198,2.666641 -3.111053,3.555511c-2.222198,2.222214 -2.617126,2.308456 -4.888855,3.555511c-1.74231,0.956451 -2.989899,1.994034 -4.444366,2.666641c-2.936768,1.358078 -5.740387,2.306351 -6.666595,2.666626c-3.015472,1.172958 -4.523041,1.042282 -6.666595,1.777756c-1.880005,0.64505 -4.455414,1.306305 -6.666565,2.222198c-3.127106,1.295303 -6.09259,3.410019 -8.888794,4.444397c-1.718658,0.635788 -2.768555,1.036423 -4.444397,1.777756c-1.465454,0.648285 -2.534485,1.573914 -3.999939,2.222198c-1.675842,0.741333 -3.111084,0.444427 -4.444397,0.444427c-0.888885,0 -2.222198,0 -5.333282,0c-2.666626,0 -5.333252,0 -7.55545,0c-4.444397,0 -6.222137,0 -9.333221,0c-2.666626,0 -5.333252,0 -6.666534,0c-2.222198,0 -4.888855,0 -6.666595,0c-1.333313,0 -1.777771,0 -5.333275,0c-0.888885,0 -2.666641,0 -5.333267,0c-0.888885,0 -3.573883,0.067902 -5.333267,-0.444427c-1.349411,-0.392944 -3.07811,-1.110016 -5.333267,-1.333313c-1.326843,-0.131378 -3.527939,-0.665924 -6.222153,-0.888885c-3.543396,-0.293243 -5.309586,-1.110535 -8.444336,-1.333313c-0.886642,-0.063004 -2.608109,-0.128265 -4.444397,-0.888885c-1.298447,-0.537842 -4.759247,-1.18782 -7.555466,-2.222198c-1.718643,-0.635757 -4.011429,-1.190933 -4.888824,-1.333313c-1.387302,-0.225128 -2.357929,-1.049622 -4.444401,-2.222198c-1.937225,-1.088715 -4.818542,-3.187408 -5.77771,-3.999954c-2.917175,-2.471222 -3.638184,-2.085541 -4.444382,-2.666626c-1.529678,-1.102524 -1.854691,-1.712311 -2.222198,-2.222198c-0.581085,-0.806198 -1.361877,-5.12236 -3.999954,-9.333221c-3.86998,-6.1772 -5.812225,-9.581223 -7.555466,-11.999847c-0.367508,-0.509903 -0.88887,-0.888885 -0.88887,-1.777756c0,-0.444443 -0.536362,-0.805618 -1.333328,-1.777756c-1.01593,-1.239243 -0.973434,-2.16954 -1.777756,-3.555527c-0.498808,-0.859543 -0.612654,-2.156433 -0.888868,-3.111069c-1.241444,-4.290558 -0.444443,-5.333267 -0.444443,-7.999908c0,-2.666626 0,-3.555511 0,-8.444336c0,-1.777756 0,-4.444397 0,-6.222153c0,-1.333313 0,-3.111069 0,-4.888824c0,-0.888885 0,-1.777756 0,-3.111069c0,-0.888885 0,-1.777756 0,-3.111084c0,-0.444427 0,-2.222183 0,-3.111069c0,-0.444443 0,-2.222198 0,-3.999954c0,-0.88887 0,-2.666626 0,-4.444382c0,-1.333328 0.884537,-3.906738 1.333311,-7.111038c0.308212,-2.200699 -0.510237,-3.657013 0,-4.888824c0.481064,-1.161377 1.092804,-2.53038 1.333328,-3.111069c0.680313,-1.642426 0.302048,-2.678112 0.444427,-3.555508c0.225128,-1.387299 0.342331,-1.789642 0.444443,-2.222198c0.228333,-0.967224 0.444443,-1.777763 0.444443,-2.222206c0,-1.333309 0.876663,-2.065533 1.333313,-3.99995c0.204224,-0.865097 0.495941,-1.761688 0.888885,-3.111069c1.024673,-3.518784 2.154282,-5.796082 2.666626,-7.555466c0.392944,-1.349396 1.333313,-2.666641 1.777756,-3.555511c0.444443,-0.888885 0.574615,-1.019058 0.888885,-1.333324c0.31427,-0.314262 0.378983,-0.965805 0.88887,-1.333313c0.806213,-0.581085 1.757843,-0.688507 2.222198,-2.222198c0.128784,-0.425369 0,-1.333313 0,-2.222191c0,-0.444443 0.043503,-1.255287 0.888885,-1.777756c0.378052,-0.23365 1.333313,-1.777763 1.777756,-2.222198l0.444427,-0.888878" id="svg_23" stroke-width="1.5" stroke="#ff0000" fill="none"/>
 </g>
</svg>