<svg width="279" height="61" xmlns="http://www.w3.org/2000/svg">
 <!-- Created with SVG Editor - http://github.com/mzalive/SVG Editor/ -->
 <g>
  <title>background</title>
  <rect fill="none" id="canvas_background" height="63" width="281" y="-1" x="-1"/>
  <g display="none" overflow="visible" y="0" x="0" height="100%" width="100%" id="canvasGrid">
   <rect fill="url(#gridpattern)" stroke-width="0" y="0" x="0" height="100%" width="100%"/>
  </g>
 </g>
 <g>
  <title>Layer 1</title>
  <path d="m47,6.3797c-1,1 -0.82375,2.486267 -3,3c-0.973248,0.229752 -4.026752,1.770248 -5,2c-2.17625,0.513733 -4.152241,1.234634 -6,2c-1.306562,0.541199 -3,2 -4,2c-1,0 -2.292892,0.292892 -3,1c-0.707108,0.707108 -1,1 -1,2c0,3 0,10 1,12c2,4 3.692549,7.186005 5,9c0.826904,1.147278 2,2 3,3c1,1 2.707108,1.292908 2,2c-0.707108,0.707092 -4.693438,2.458801 -6,3c-1.847759,0.765381 -2.549156,0.95517 -6,2c-0.957092,0.289795 -2.07612,0.61731 -3,1c-2.613127,1.082397 -2,3 -3,3c-2,0 -3,0 -4,0c-1,0 -2.026751,-0.229736 -3,0c-2.17625,0.513733 -2,2 -3,2c-1,0 -2,1 -4,2l-2,1" id="svg_8" stroke-width="1.5" stroke="#fff85b" fill="none"/>
  <path id="svg_19" d="m217,41.578918" opacity="0.5" fill-opacity="null" stroke-opacity="null" stroke-width="1.5" stroke="#fff85b" fill="none"/>
  <path id="svg_20" d="m119,18.578918" opacity="0.5" fill-opacity="null" stroke-opacity="null" stroke-width="1.5" stroke="#fff85b" fill="none"/>
  <path d="m46,58.3797c0,-1 1.917606,-3.386871 3,-6c0.382683,-0.923889 2.083981,-5.960175 3,-8c2.206066,-4.912567 1.54705,-7.112366 3,-12c1.534485,-5.161911 1.877659,-7.06601 3,-9c1.809723,-3.118469 2.617317,-4.076111 3,-5c1.082394,-2.613129 2.292892,-2.292892 3,-3c0.707108,-0.707108 -1.148048,-2.228363 0,-5c1.08239,-2.613129 1.692551,-3.186005 3,-5c0.826904,-1.147278 1.770248,-2.026749 2,-3c0.513741,-2.176254 1.617317,-1.923889 2,-1c1.08239,2.613129 2.714119,3.21167 5,6c2.689789,3.281006 4.486259,4.823746 5,7c0.229752,0.973251 0,2 0,4c0,1 0,3 0,5c0,1 0,2 0,4c0,1 -0.292892,2.292892 -1,3c-0.707108,0.707108 -2,0 -3,0c-1,0 -2,0 -3,0c-1,0 -2.076118,-0.38269 -3,0c-1.306564,0.541199 -2,1 -3,1c-2,0 -4,2 -5,2c-1,0 -2,1 -3,1c-1,0 -2,0 -3,0l-1,0l-1,0l-1,0" id="svg_23" fill-opacity="null" stroke-opacity="null" stroke-width="1.5" stroke="#fff85b" fill="none"/>
  <path d="m115,7.3797c-2,0 -3.053505,-0.459503 -5,0c-2.176254,0.513733 -3.149345,0.474274 -4,1c-1.902115,1.175568 -1.693436,2.458801 -3,3c-0.923882,0.38269 -1.617317,3.076111 -2,4c-0.541199,1.306564 -0.770248,2.026749 -1,3c-0.513741,2.176254 -1.292892,3.292892 -2,4c-0.707108,0.707108 -2,1 -3,1c-1,0 -2.076118,0.61731 -3,1c-1.306564,0.541199 -2,1 -2,2c0,1 0.386871,1.917603 3,3c1.847755,0.765366 3.693436,1.458801 5,2c1.847755,0.765366 2.823746,1.486252 5,2c0.973251,0.229752 2.85273,0.173096 4,1c3.627983,2.614899 5,3 6,3c1,0 -0.012909,-0.160187 -1,0c-3.121445,0.506546 -5,3 -6,3c-1,0 -2.292892,0.292908 -3,1c-0.707108,0.707092 -1.292892,0.292908 -2,1c-0.707108,0.707092 -1.585785,0.585785 -3,2c-0.707108,0.707092 -0.292892,1.292908 -1,2c-1.414215,1.414215 -2,1 -4,2c-2,1 -1.541199,1.69342 -1,3c0.382683,0.923889 2.026749,0.770264 3,1c2.176254,0.513733 2.292892,2.292908 3,3c0.707108,0.707092 1.076118,0.61731 2,1c1.306564,0.541199 4,2 5,2l0,1l1,0" id="svg_24" fill-opacity="null" stroke-opacity="null" stroke-width="1.5" stroke="#fff85b" fill="none"/>
  <path d="m127,58.3797c0,-1 0,-3 0,-7c0,-2 0,-4 0,-6c0,-3 0,-4 0,-5c0,-2 1,-3 1,-4c0,-1 1.458801,-0.693436 2,-2c1.148056,-2.771637 1.770248,-7.026749 2,-8c0.513748,-2.176254 2,-4 2,-5c0,-1 2.458801,-4.693436 3,-6c1.148056,-2.771637 1.528137,-5.118317 2,-6c1.701309,-3.178925 3.292892,-3.292892 4,-4c0.707108,-0.707108 2,0 3,0c1,0 2.292892,-0.707108 3,0c0.707108,0.707108 -0.765366,2.152237 0,4c0.541199,1.306564 1.61731,3.076111 2,4c0.541199,1.306564 1,2 1,3c0,1 0,2 0,3c0,1 0,2 0,3c0,1 0.902115,2.824432 -1,4c-0.850647,0.525726 -1.692551,2.186005 -3,4c-0.826904,1.147278 -1.693436,2.458801 -3,3c-0.923874,0.38269 -2,0 -3,0c-2,0 -3,-1 -4,-1c-1,0 -2,0 -3,0c-1,0 -3.414215,0.585785 -2,2c0.707108,0.707108 1.292892,2.292892 2,3c0.707108,0.707108 1.61731,1.076126 2,2c0.541199,1.30658 0.852737,2.173096 2,3c1.813995,1.307434 3.292892,0.292908 4,1c0.707108,0.707092 0.292892,2.292908 1,3c0.707108,0.707092 1,1 1,2c0,1 0.292892,1.292908 1,2c0.707108,0.707092 0.61731,1.076111 1,2c0.541199,1.30658 2,1 3,1c1,0 2,0 3,0c1,0 1.714127,-1.21167 4,-4c0.896591,-1.093689 2,-2 3,-3l1,-1" id="svg_25" fill-opacity="null" stroke-opacity="null" stroke-width="1.5" stroke="#fff85b" fill="none"/>
  <path d="m204,3.3797c-1,0 -2,0 -4,0c-1,0 -1.823746,0.486267 -4,1c-0.973251,0.229752 -2,0 -3,0c-1,0 -3,0 -4,0c-1,0 -0.823746,1.486267 -3,2c-0.973251,0.229752 -1.61731,1.076111 -2,2c-0.541199,1.306564 -1,3 -2,4c-1,1 -1,2 -1,3c0,2 -2.486252,3.823746 -3,6c-0.229752,0.973251 -0.824432,2.097885 -2,4c-0.525726,0.850647 0.902115,2.824432 -1,4c-0.850647,0.525726 -1.486252,0.823746 -2,3c-0.229752,0.973251 -0.486252,2.823746 -1,5c-0.229752,0.973251 0,2 0,3c0,1 0,3 0,4c0,1 0,2 0,3c0,1 1,2 1,3c0,2 1,2 2,2c1,0 3,0 4,0c2,0 3.053497,0.459503 5,0c2.176254,-0.513733 3,-1 4,-2c1,-1 2.298691,-0.948547 4,-2c1.902115,-1.175568 2.292892,-1.292908 3,-2c0.707108,-0.707092 1,-1 2,-2c1,-1 0.692551,-2.186005 2,-4c0.826904,-1.147278 2,-2 2,-3c0,-1 0.770248,-2.026749 1,-3c0.513748,-2.176254 2,-3 2,-4c0,-1 0.292892,-1.292892 1,-2c0.707108,-0.707108 0.234634,-4.152237 1,-6c0.541199,-1.306564 1.458801,-3.693436 2,-5c0.38269,-0.923889 0.824432,-4.097885 2,-6c0.525726,-0.850647 0,-2 0,-3c0,-1 -1.149353,-0.474274 -2,-1c-1.902115,-1.175568 -2,-2 -4,-3l-1,0l-1,0l-1,0" id="svg_26" fill-opacity="null" stroke-opacity="null" stroke-width="1.5" stroke="#fff85b" fill="none"/>
  <path d="m239,10.3797c0,1 -1,1 -2,1c-1,0 -1.097885,0.824432 -3,2c-0.850647,0.525726 -1.693436,0.458801 -3,1c-0.923874,0.38269 -2,0 -4,2c-1,1 -2,1 -2,2c0,1 0.38269,2.076126 0,3c-0.541199,1.306564 -2,3 -2,4c0,2 0,3 0,5c0,1 -0.292892,1.292892 -1,2c-0.707108,0.707108 0,2 0,4c0,1 0,3 0,4c0,1 -0.38269,2.076111 0,3c0.541199,1.30658 1,2 2,3c1,1 2.149353,0.474274 3,1c1.902115,1.175568 1.693436,2.458801 3,3c0.923874,0.38269 2,0 3,0c1,0 2,0 3,0c1,0 2,0 3,0l1,0l1,0l1,-1" id="svg_27" fill-opacity="null" stroke-opacity="null" stroke-width="1.5" stroke="#fff85b" fill="none"/>
  <path d="m254,32.3797c2,0 4.585785,1.414215 6,0c0.707092,-0.707108 1.152252,-0.234634 3,-1c1.306549,-0.541199 2.585785,0.414215 4,-1c0.707092,-0.707108 0.824432,-1.097885 2,-3c0.525726,-0.850647 0.458801,-4.693436 1,-6c0.38269,-0.923874 0.824432,-1.097885 2,-3c0.525726,-0.850647 -0.68927,-2.080261 0,-5c0.513733,-2.176254 1.770233,-3.026749 2,-4c0.513733,-2.176254 1.707092,-3.292892 1,-4c-1.414215,-1.414215 -3,0 -5,0c-1,0 -2.693451,1.458801 -4,2c-0.923889,0.38269 -3.292908,0.292892 -4,1c-0.707092,0.707108 -1,1 -2,2c-1,1 -2.292908,1.292892 -3,2c-0.707092,0.707108 -2.385101,4.372009 -5,8c-0.826904,1.147278 -2.337494,4.309998 -4,7c-0.7435,1.203003 -2,3 -2,5c0,1 2.076126,2.61731 3,3c1.306564,0.541199 0.585785,1.585785 2,3c0.707108,0.707092 1.346191,0.705444 3,3c1.307449,1.813995 2.824432,2.0979 4,4c0.525726,0.850647 1.186005,0.692566 3,2c1.147278,0.826904 2,1 4,1c1,0 4,0 6,0c1,0 2,0 3,0c1,0 1,-1 1,-2c0,-1 0,-2 0,-3l0,-1" id="svg_30" fill-opacity="null" stroke-opacity="null" stroke-width="1.5" stroke="#fff85b" fill="none"/>
 </g>
</svg>